<svg width="46" height="42" viewBox="0 0 46 42" fill="none" xmlns="http://www.w3.org/2000/svg">
<path d="M26.7594 6.68099C26.6324 6.39267 26.4837 6.11436 26.3145 5.84848C25.6174 4.78543 24.3429 4.38146 23.2271 4.87683C22.1113 5.3722 21.5458 6.59886 21.9035 7.82162C22.0021 8.15818 21.9369 8.37936 21.7217 8.63533C19.8875 10.8073 18.0654 12.99 16.2376 15.1681C14.1553 17.6507 12.0631 20.1234 9.99224 22.6153C9.68091 22.989 9.33817 23.1258 8.86295 23.1285C7.28901 23.1282 5.71534 23.162 4.14159 23.1878C3.59443 23.197 3.56549 23.2463 3.80014 23.7605C5.17704 26.7777 6.55383 29.7946 7.93051 32.8113C8.19077 33.3817 8.2635 33.3947 8.68151 32.9463C9.772 31.7765 10.8615 30.6045 11.9499 29.4303C12.0914 29.2756 12.2308 29.1363 12.465 29.1392C13.1217 29.148 13.7786 29.1525 14.4356 29.1527C14.6868 29.1533 14.7758 29.2909 14.7607 29.5209C14.7425 29.8211 14.7143 30.1213 14.7005 30.4212C14.6773 30.8188 14.7337 31.2172 14.8664 31.593C14.9991 31.9689 15.2055 32.3147 15.4733 32.6101C15.7412 32.9055 16.0652 33.1446 16.4263 33.3133C16.7874 33.4821 17.1784 33.5771 17.5763 33.5928C18.0956 33.6207 18.6151 33.647 19.1347 33.6716C20.7071 33.7459 22.28 33.8407 23.852 33.8844C25.3661 33.9256 26.5196 33.066 26.9189 31.6592C27.0888 31.0605 27.0555 30.4359 27.0876 29.824C27.1108 29.3824 27.284 29.2657 27.6922 29.2781C28.7323 29.3051 29.7741 29.3259 30.8111 29.3064C31.3542 29.2982 31.7307 29.437 32.0756 29.9219C32.6473 30.7239 33.5197 31.0259 34.4766 30.7952C35.4968 30.5493 36.1806 29.9042 36.3737 28.8224C36.4963 28.1341 36.2634 27.517 35.9917 26.9176C34.45 23.5247 32.9025 20.1337 31.3493 16.7448C29.8193 13.3893 28.2893 10.0347 26.7594 6.68099ZM25.3924 29.7675C25.3616 30.1765 25.3549 30.5889 25.3057 30.9953C25.2148 31.7433 24.7274 32.1979 23.9789 32.1712C21.8731 32.0957 19.7683 32.0023 17.6642 31.891C17.1577 31.8646 16.7424 31.6349 16.5374 31.1244C16.2897 30.5538 16.4471 29.9654 16.4803 29.3855C16.4924 29.1631 16.7091 29.183 16.8698 29.1832C17.9775 29.1876 19.0853 29.1947 20.1931 29.2045C21.7666 29.2177 23.3391 29.2368 24.9123 29.2493C25.395 29.2531 25.4284 29.2867 25.3924 29.7675ZM26.8908 18.8136C28.1361 21.5424 29.3815 24.2715 30.6271 27.0008C30.8849 27.5659 30.8617 27.6099 30.2592 27.6026C27.2641 27.565 24.2685 27.5104 21.2712 27.4837C18.2739 27.457 15.2558 27.4479 12.2483 27.4403C11.7 27.4392 11.246 27.688 10.8754 28.0823C10.2752 28.7166 9.68508 29.3634 9.0854 30.0011C8.78824 30.3169 8.6824 30.3044 8.49662 29.9072C7.79706 28.3901 7.10326 26.8698 6.41521 25.3462C6.22804 24.9361 6.29559 24.8448 6.76033 24.8369C7.65009 24.8211 8.53855 24.8005 9.42705 24.7997C9.71517 24.808 10.0011 24.7493 10.2623 24.6281C10.5235 24.5068 10.7528 24.3265 10.932 24.1012C11.8796 22.9702 12.8343 21.845 13.7844 20.7156C16.6847 17.2671 19.585 13.8166 22.4853 10.364C22.7784 10.0175 22.8864 10.0426 23.1015 10.5141C24.3669 13.2802 25.6299 16.0467 26.8908 18.8136ZM34.3521 27.4892C34.4617 27.725 34.5499 27.9701 34.6159 28.2215C34.7177 28.6226 34.5663 28.9037 34.2067 29.0491C33.8471 29.1945 33.5512 29.0958 33.3343 28.7371C33.2262 28.5459 33.129 28.3487 33.0431 28.1465C31.5077 24.782 29.9725 21.4178 28.4373 18.0538C26.8851 14.6524 25.3327 11.2507 23.7803 7.84883C23.6847 7.66709 23.6102 7.47512 23.5579 7.27664C23.4851 6.91934 23.6126 6.61923 23.9556 6.46332C24.2875 6.31251 24.5673 6.4194 24.7875 6.70426C24.9572 6.93683 25.0999 7.18787 25.2129 7.45255C28.2594 14.1311 31.3059 20.81 34.3521 27.4892Z" fill="#333333"/>
<path d="M39.3239 13.0801C39.0985 12.6455 38.6548 12.5118 38.1253 12.7398C37.5741 12.9776 37.0325 13.2364 36.4861 13.4847C35.9397 13.7331 35.3903 13.9728 34.8477 14.2294C34.3184 14.4835 34.1434 14.8614 34.3209 15.3096C34.5118 15.7933 34.9606 16.0133 35.5012 15.7839C36.6433 15.3004 37.7724 14.7872 38.8886 14.2444C39.4087 13.9899 39.5482 13.5043 39.3239 13.0801Z" fill="#333333"/>
<path d="M31.2915 10.3268C31.4534 10.2564 31.5881 10.1356 31.6757 9.98231C32.3043 8.92759 32.9383 7.87675 33.5536 6.81454C33.6633 6.63032 33.6989 6.41117 33.6534 6.20129C33.6078 5.9914 33.4845 5.80638 33.3082 5.68354C33.2206 5.62183 33.1217 5.57816 33.0172 5.55511C32.9127 5.53205 32.8047 5.53006 32.6995 5.54925C32.5943 5.56845 32.4941 5.60844 32.4046 5.66689C32.3152 5.72534 32.2383 5.80108 32.1786 5.88967C31.452 6.97896 30.7928 8.11086 30.1678 9.26061C29.9909 9.58681 30.0766 9.93465 30.3433 10.2047C30.61 10.4748 30.9153 10.4933 31.2915 10.3268Z" fill="#333333"/>
<path d="M40.2548 21.8008C39.1249 21.5851 37.9893 21.3846 36.8596 21.1751C36.6437 21.1231 36.4172 21.1378 36.2102 21.2173C36.0686 21.2867 35.9493 21.3944 35.8657 21.5282C35.7822 21.662 35.7377 21.8165 35.7372 21.9744C35.7281 22.1265 35.7662 22.2779 35.8463 22.4078C35.9264 22.5376 36.0446 22.6397 36.1847 22.7C36.3592 22.7789 36.5427 22.8357 36.7312 22.8691C37.7964 23.0718 38.8617 23.2672 39.927 23.4553C40.5768 23.5703 40.9817 23.3284 41.0751 22.7817C41.1581 22.2913 40.8594 21.9155 40.2548 21.8008Z" fill="#333333"/>
</svg>
