<svg width="30" height="33" viewBox="0 0 30 33" fill="none" xmlns="http://www.w3.org/2000/svg">
<path d="M14.4011 31.9164C13.8075 31.9164 13.2163 31.8977 12.6177 31.8762C11.1564 31.8236 9.9397 31.7474 8.78871 31.6366C7.02936 31.4672 5.15258 31.2417 3.34547 30.7438C2.49614 30.5098 1.86875 30.2621 1.31032 29.9407C1.10885 29.8246 0.920307 29.6926 0.749364 29.5479C0.243358 29.1192 -0.00874651 28.5775 0.00023159 27.937L0.00418195 27.6371C0.021779 26.3219 0.0397352 24.9623 0.213551 23.6175C0.471402 21.6216 0.946523 20.0583 1.70822 18.6976C2.80894 16.7314 4.49 15.3481 6.70471 14.5859C7.18379 14.4211 7.60073 14.3029 7.99505 14.2214C7.99433 14.1473 7.99505 14.0725 7.9972 13.9973C6.48529 13.1963 5.36195 12.0195 4.65735 10.4971C3.24887 7.45428 4.17828 3.7519 6.86776 1.69357C8.01157 0.817727 9.30334 0.296528 10.7072 0.143732C12.2209 -0.0207087 13.7274 0.258064 15.064 0.949703C16.4115 1.64699 17.4985 2.72009 18.2078 4.0529C19.1502 5.82364 19.3347 7.83362 18.7271 9.71234C18.1306 11.5572 16.8363 13.0742 15.0763 13.9959C15.0788 14.0718 15.0791 14.1462 15.0788 14.2186C16.474 14.5277 17.6706 15.0411 18.7293 15.7832C18.7357 15.7871 18.7422 15.7906 18.749 15.7942C18.8478 15.8489 19.1096 15.9939 19.1509 16.3221C19.1742 16.5073 19.162 16.6802 19.1509 16.833L19.1476 16.8793C19.1383 17.0172 19.0719 17.2696 18.7332 17.4054L18.7307 17.4065C18.3935 17.5681 18.1263 17.7184 17.8903 17.8783C17.6318 18.0536 17.3412 18.0582 17.0719 17.8917C16.7577 17.6976 16.5232 17.6069 16.2872 17.5886C15.6692 17.5402 15.2246 17.7438 14.9283 18.2103C14.3695 19.0907 13.8161 20.0294 13.2375 21.0792C12.8716 21.7433 13.1355 22.5634 13.8384 22.9466C14.5404 23.3295 14.4377 23.8828 14.4036 24.0645C14.3724 24.2318 14.3925 24.4298 14.4165 24.6013C14.4711 24.9944 14.3027 25.3063 13.9425 25.4799C13.5924 25.6486 13.3546 25.884 13.216 26.1998C13.0181 26.6501 13.0328 27.0629 13.2605 27.462C13.7561 28.3305 14.2768 29.207 14.7807 30.0543L14.8866 30.2325C15.0332 30.4791 15.249 30.6633 15.5463 30.7953C15.5869 30.8133 15.6275 30.8306 15.6681 30.8479L15.7306 30.8744C15.9597 30.9725 16.0901 31.2128 16.0452 31.4541C16.0003 31.6955 15.7923 31.8755 15.5428 31.8882C15.1592 31.9086 14.7796 31.9164 14.4011 31.9164ZM11.5522 1.15649C11.3105 1.15649 11.0681 1.16954 10.8253 1.19601C9.62296 1.32658 8.51398 1.77508 7.52962 2.52847C5.22872 4.28968 4.43326 7.4564 5.63776 10.0585C6.2612 11.4054 7.26818 12.4383 8.6307 13.1285C9.02609 13.329 9.09325 13.649 9.07996 13.8826C9.06919 14.0739 9.06919 14.2609 9.07996 14.4381C9.1051 14.8467 8.86736 15.1431 8.45903 15.2116C8.04173 15.2818 7.5975 15.4004 7.06061 15.5849C6.08702 15.9198 5.22512 16.3905 4.49898 16.9841C3.76241 17.5857 3.14113 18.3342 2.652 19.2079C1.95782 20.4483 1.52256 21.8919 1.2823 23.7508C1.11603 25.036 1.09843 26.3653 1.08119 27.6508L1.07724 27.9515C1.07258 28.2772 1.18821 28.5221 1.45253 28.7458C1.57391 28.8489 1.7093 28.9434 1.85475 29.0271C2.33023 29.3009 2.87969 29.5158 3.63636 29.7243C5.26678 30.1739 6.91732 30.3927 8.89357 30.5829C10.0223 30.6916 11.2182 30.7664 12.6572 30.8183C13.1118 30.8345 13.5622 30.8493 14.0104 30.855C13.9917 30.826 13.9734 30.7971 13.9558 30.7671L13.8498 30.5889C13.3438 29.7374 12.8202 28.857 12.3203 27.9801C11.9285 27.293 11.8962 26.5326 12.2266 25.7806C12.4485 25.2753 12.8195 24.879 13.3309 24.6002C13.3068 24.3828 13.2968 24.139 13.3417 23.8874C13.3341 23.8828 13.3255 23.8782 13.3158 23.8726C12.7319 23.5543 12.3031 23.0409 12.1081 22.4265C11.9106 21.8037 11.9752 21.1463 12.2902 20.5753C12.8795 19.5061 13.4437 18.5491 14.0143 17.65C14.5218 16.8507 15.3596 16.4541 16.3727 16.5331C16.8076 16.567 17.1725 16.7251 17.4623 16.887C17.6293 16.7826 17.8085 16.6813 18.0089 16.5786C17.0256 15.9096 15.9008 15.4565 14.5746 15.1946C14.1986 15.1205 13.9824 14.8506 13.9956 14.4726C14.0018 14.3043 14.0068 14.1092 13.9953 13.9243C13.9723 13.5612 14.1371 13.2803 14.4722 13.1116C16.0326 12.3257 17.1793 11.0046 17.7011 9.39122C18.2211 7.78352 18.0624 6.06183 17.254 4.5427C16.6463 3.40114 15.7159 2.48225 14.5627 1.88553C13.6304 1.40456 12.6022 1.15649 11.5522 1.15649ZM18.0728 16.8069C18.0728 16.8076 18.0728 16.808 18.0728 16.8087V16.8069Z" fill="#333333"/>
<path d="M29.1066 26.7105C28.6778 26.4773 28.2591 26.226 27.8292 25.9949C27.6985 25.9247 27.6716 25.8566 27.7111 25.7189C27.9966 24.7224 27.9865 23.7241 27.7014 22.7294C27.6709 22.6231 27.6928 22.5745 27.7876 22.5222C28.2307 22.278 28.6678 22.0236 29.1113 21.7798C29.2137 21.7233 29.2262 21.6803 29.1659 21.579C28.6857 20.773 28.2088 19.9649 27.7387 19.1533C27.6665 19.0288 27.6094 19.0256 27.4931 19.094C27.0722 19.341 26.6448 19.5768 26.2218 19.8203C26.1421 19.8661 26.09 19.8809 26.0099 19.8044C25.2417 19.0665 24.3328 18.5651 23.3007 18.2792C23.1929 18.2492 23.1603 18.2048 23.1613 18.0982C23.1667 17.6045 23.161 17.1105 23.1656 16.6165C23.1667 16.5074 23.1452 16.463 23.0195 16.4637C22.0621 16.469 21.1046 16.469 20.1476 16.4637C20.0172 16.463 19.9881 16.5057 19.9896 16.6253C19.9957 17.1073 19.9878 17.5897 19.9946 18.0718C19.9964 18.197 19.9633 18.2514 19.8315 18.2881C18.8188 18.5707 17.9235 19.0612 17.1683 19.7864C17.0853 19.8661 17.0286 19.8771 16.928 19.8185C16.4963 19.5665 16.0575 19.3262 15.6262 19.0739C15.5285 19.0168 15.4883 19.0337 15.4351 19.1251C14.9593 19.9406 14.4817 20.7547 13.9976 21.5652C13.9261 21.6848 13.9552 21.7304 14.0672 21.7914C14.4903 22.0226 14.9047 22.2696 15.3296 22.4972C15.4621 22.5681 15.4829 22.6387 15.4452 22.7745C15.1679 23.7661 15.1715 24.7598 15.452 25.75C15.4872 25.8738 15.4495 25.9264 15.3446 25.9839C14.9119 26.2221 14.486 26.4727 14.0525 26.7098C13.943 26.7698 13.9304 26.816 13.994 26.9226C14.4774 27.7339 14.9561 28.5472 15.4301 29.3634C15.4919 29.4693 15.5411 29.4704 15.6384 29.4139C16.0661 29.1665 16.4996 28.929 16.9259 28.6799C17.0257 28.6213 17.0824 28.6277 17.1672 28.7081C17.9257 29.4287 18.8156 29.9284 19.833 30.2019C19.9662 30.2379 19.9957 30.2975 19.9942 30.4214C19.9878 30.9094 19.9957 31.3974 19.9888 31.8854C19.987 32.003 20.0229 32.0322 20.1389 32.0308C20.6177 32.0245 21.0964 32.0284 21.5751 32.028C22.0419 32.028 22.5088 32.0192 22.975 32.0326C23.1423 32.0375 23.1696 31.9828 23.1667 31.8357C23.1574 31.3597 23.166 30.8833 23.1613 30.4069C23.1603 30.2979 23.1836 30.246 23.3046 30.2128C24.3321 29.9326 25.2353 29.4326 26.0009 28.7011C26.0832 28.6228 26.1388 28.6245 26.229 28.6767C26.6513 28.9213 27.079 29.157 27.5006 29.4026C27.6069 29.4647 27.663 29.476 27.7351 29.3511C28.2042 28.5388 28.6811 27.7307 29.1601 26.924C29.2212 26.822 29.2216 26.773 29.1066 26.7105ZM21.542 27.2254C19.8876 27.2208 18.5426 25.8728 18.5484 24.2238C18.5541 22.5857 19.9131 21.2649 21.5884 21.2685C23.2623 21.272 24.6208 22.6147 24.6154 24.2608C24.6104 25.9074 23.2393 27.2296 21.542 27.2254Z" fill="#333333"/>
</svg>
