<svg width="27" height="24" viewBox="0 0 27 24" fill="none" xmlns="http://www.w3.org/2000/svg">
<path d="M26.6263 12.7706L17.6259 22.8259C16.8223 23.7237 15.4293 23.0953 15.4293 21.8084V16.0625H8.14326C7.43073 16.0625 6.85748 15.4221 6.85748 14.626V8.88014C6.85748 8.08409 7.43073 7.44366 8.14326 7.44366H15.4293V1.69776C15.4293 0.416901 16.8169 -0.217542 17.6259 0.680255L26.6263 10.7356C27.1246 11.2982 27.1246 12.208 26.6263 12.7706ZM10.2862 22.5267V20.1325C10.2862 19.7375 9.99692 19.4143 9.64334 19.4143H5.14311C4.19485 19.4143 3.42874 18.5584 3.42874 17.499V6.00718C3.42874 4.94778 4.19485 4.09188 5.14311 4.09188H9.64334C9.99692 4.09188 10.2862 3.76868 10.2862 3.37365V0.979521C10.2862 0.58449 9.99692 0.261283 9.64334 0.261283H5.14311C2.30369 0.261283 0 2.83497 0 6.00718V17.499C0 20.6712 2.30369 23.2449 5.14311 23.2449H9.64334C9.99692 23.2449 10.2862 22.9217 10.2862 22.5267Z" fill="#333333"/>
</svg>
